<?xml version="1.0" standalone="no"?>
<!DOCTYPE svg PUBLIC "-//W3C//DTD SVG 20010904//EN"
 "http://www.w3.org/TR/2001/REC-SVG-20010904/DTD/svg10.dtd">
<svg version="1.0" xmlns="http://www.w3.org/2000/svg"
 width="256.000000pt" height="256.000000pt" viewBox="0 0 256.000000 256.000000"
 preserveAspectRatio="xMidYMid meet">

<g transform="translate(0.000000,256.000000) scale(0.100000,-0.100000)"
fill="#000000" stroke="none">
<path d="M1869 2446 c-9 -7 -476 -16 -906 -16 l-451 0 -182 -357 c-101 -197
-205 -399 -232 -450 l-49 -91 113 -125 c62 -69 118 -126 123 -126 10 -1 170
223 169 237 0 4 -19 45 -42 92 -56 112 -65 193 -30 259 43 83 132 102 260 57
134 -47 283 -183 353 -321 32 -63 39 -87 42 -152 5 -101 -12 -138 -81 -172
-45 -23 -54 -24 -110 -14 -73 12 -155 49 -221 99 -26 20 -50 32 -55 28 -4 -5
-44 -64 -88 -131 l-81 -121 60 -66 61 -66 293 0 293 0 79 -146 c43 -81 83
-147 88 -148 6 -1 44 67 86 149 l77 150 133 6 c74 4 207 7 295 8 l162 1 43 53
c25 28 50 60 58 69 12 16 2 32 -80 143 -51 69 -97 125 -101 125 -5 0 -31 -18
-58 -39 -78 -62 -154 -93 -235 -99 -61 -3 -74 -1 -105 20 -54 36 -72 80 -66
159 15 202 218 442 425 503 103 30 174 13 219 -54 21 -31 23 -43 20 -117 -4
-69 -10 -93 -41 -156 -20 -41 -37 -78 -37 -81 0 -8 168 -234 180 -241 7 -4
123 127 208 236 10 14 -3 44 -91 200 -57 101 -168 300 -247 442 l-144 257 -51
0 c-29 0 -54 -2 -56 -4z"/>
<path d="M1761 943 l-44 -4 7 -242 c4 -134 11 -258 15 -276 l6 -34 69 84 c38
46 74 90 79 97 11 14 10 198 -1 312 l-7 65 -40 1 c-22 1 -60 -1 -84 -3z"/>
<path d="M1452 928 c-5 -7 -26 -46 -46 -85 l-36 -73 1 -212 c1 -117 4 -255 8
-307 l6 -93 113 98 114 99 -7 285 c-4 157 -9 288 -12 293 -7 12 -130 8 -141
-5z"/>
<path d="M678 923 l-28 -4 0 -173 0 -174 81 -92 c45 -50 85 -88 90 -83 4 4 5
126 2 271 l-6 262 -56 -1 c-31 -1 -68 -4 -83 -6z"/>
<path d="M940 837 c0 -52 3 -182 7 -289 l6 -196 104 -86 c57 -48 110 -89 119
-93 14 -5 15 23 9 283 l-7 289 -51 93 -50 92 -69 0 -68 0 0 -93z"/>
</g>
</svg>
